/* XPM */
static char *enemy_l[] = {
/* columns rows colors chars-per-pixel */
"49 64 193 2 ",
"   c #000100",
".  c #090604",
"X  c #040807",
"o  c #0C0905",
"O  c #060B09",
"+  c #0B0D0B",
"@  c #07100D",
"#  c #0B110D",
"$  c #19160F",
"%  c #17150D",
"&  c #0A1511",
"*  c #0D1B16",
"=  c #0E1E19",
"-  c #171614",
";  c #1A1614",
":  c #171B17",
">  c #1C1A15",
",  c #171718",
"<  c #1B1718",
"1  c #141E19",
"2  c #1C1B19",
"3  c #22170F",
"4  c #231C15",
"5  c #291E15",
"6  c #231E1A",
"7  c #291E19",
"8  c #311F15",
"9  c #0F221B",
"0  c #172016",
"q  c #1D2116",
"w  c #14231D",
"e  c #1B231C",
"r  c #192A1F",
"t  c #2E200E",
"y  c #252317",
"u  c #2C2115",
"i  c #25211C",
"p  c #2B231D",
"a  c #212A1C",
"s  c #2D281E",
"d  c #322416",
"f  c #3A2614",
"g  c #3C2A15",
"h  c #33261B",
"j  c #38261A",
"k  c #35291B",
"l  c #3C2B1C",
"z  c #352917",
"x  c #142721",
"c  c #1A2620",
"v  c #162B23",
"b  c #1C2C24",
"n  c #153027",
"m  c #1C3026",
"M  c #1C332B",
"N  c #173B2F",
"B  c #1C3A2E",
"V  c #133229",
"C  c #1E3C31",
"Z  c #252321",
"A  c #2C2521",
"S  c #212F26",
"D  c #2E2923",
"F  c #212F2A",
"G  c #2E2B29",
"H  c #312722",
"J  c #332A24",
"K  c #3A2E24",
"L  c #352E29",
"P  c #392F29",
"I  c #22362D",
"U  c #223A2D",
"Y  c #283526",
"T  c #353326",
"R  c #3A3125",
"E  c #36312A",
"W  c #3A312B",
"Q  c #3E382D",
"!  c #223730",
"~  c #213C32",
"^  c #3D3631",
"/  c #3E3936",
"(  c #3F3B38",
")  c #422B16",
"_  c #422D1B",
"`  c #492E1A",
"'  c #493716",
"]  c #42321C",
"[  c #4B331B",
"{  c #52341C",
"}  c #58371D",
"|  c #543C1D",
" . c #5B3A1E",
".. c #443323",
"X. c #4C3522",
"o. c #4E3924",
"O. c #41362D",
"+. c #48372C",
"@. c #453B2D",
"#. c #553B24",
"$. c #5B3E23",
"%. c #553D2B",
"&. c #403630",
"*. c #433A33",
"=. c #4B3D33",
"-. c #453E3A",
";. c #503F32",
":. c #1D4135",
">. c #1F4538",
",. c #1F4C3C",
"<. c #214236",
"1. c #234539",
"2. c #264A3D",
"3. c #294A3B",
"4. c #554020",
"5. c #5D4225",
"6. c #56412B",
"7. c #5B422A",
"8. c #4E4535",
"9. c #4C433B",
"0. c #544133",
"q. c #594434",
"w. c #5E4934",
"e. c #55463B",
"r. c #5A4538",
"t. c #52483F",
"y. c #5C483D",
"u. c #644324",
"i. c #6B4424",
"p. c #644428",
"a. c #66482B",
"s. c #6C4B2B",
"d. c #69452A",
"f. c #714A26",
"g. c #734E2D",
"h. c #7B4E2D",
"j. c #7E542C",
"k. c #644633",
"l. c #634934",
"z. c #6B4D34",
"x. c #634C3B",
"c. c #684C38",
"v. c #6C5136",
"b. c #67523F",
"n. c #6B513B",
"m. c #755333",
"M. c #7E5730",
"N. c #7C5935",
"B. c #274E40",
"V. c #265244",
"C. c #2A5344",
"Z. c #285648",
"A. c #225948",
"S. c #295949",
"D. c #345C48",
"F. c #514740",
"G. c #554B42",
"H. c #5A4E46",
"J. c #435C45",
"K. c #425542",
"L. c #5D5148",
"P. c #675041",
"I. c #705442",
"U. c #476049",
"Y. c #43745E",
"T. c #8A572E",
"R. c #84562E",
"E. c #855631",
"W. c #845C33",
"Q. c #895832",
"!. c #8E5F38",
"~. c #8B5530",
"^. c #9A5E32",
"/. c #925F34",
"(. c #8D6139",
"). c #966032",
"_. c #996339",
"`. c #A26335",
"'. c #A96937",
"]. c #AA6738",
"[. c #B56D36",
"{. c #B96E37",
"}. c #BD713C",
"|. c #C4733A",
" X c #D87A3D",
".X c #E07F3D",
"XX c #B87744",
"oX c #B27743",
"OX c #CC7D45",
"+X c #C37A40",
"@X c #EA823B",
"#X c #E28342",
"$X c None",
/* pixels */
"                                                                                                  ",
"                                                                                                  ",
"          X X                                                                                     ",
"        O A.C                                                                 N V.&               ",
"        O C V.                          O O             X X X O               n v 1.&             ",
"      O v x B.                    O   v Z.~ M v v w w b m ~ 1.S.w X O         M 2 1 1.&           ",
"    O <.2 2 M X               O w C.U e 1 > > 4 > > 2 4 4 < 2 0 e C Z.= O     v 2 , w 2.&         ",
"    N b G G b B.O           w V.M e < 6 Z J L L E K H J D p p i 6 2 1 b C.= O w 6 6 1 e Z.O       ",
"  X B.e ^ *.i b 2.O     O * C e Z G L P L P P P W L L K J J J J A p y > , C C.c i Z 2 > C X       ",
"    <.6 W Q O.Z b <.v = V.m e T *.&.P P P P P P E L L E J J A A D D A A 6 < 2 2 A A Z 2 w @       ",
"  X 1.> D L ^ *.G 6 m ~ c p *.9.&.Q *.P P P P P L P R L J J H J K H J D A 6 < 7 J A i 2 : ,.X     ",
"    <.1 7 A D L P J < < h ;.G.^ P P *.Q P P P P P W P P W J H J H H A y 6 6 4 A A A D i , C X     ",
"      b < A A A A A 6 e =.G.O.P P W P P P P ^ P W P W W P L L J k y 6 6 p D L J A A A Z < M       ",
"    X :., 6 A A A 6 > Q H.=.K P P P W W W P P P P P O.*.Q P J H 6 6 L &.*.^ P H Z p A 7 , M X     ",
"      N M , 6 Z Z > A F.t.K P P P P P W P P P P P P Q Q P P J A 6 A *.Q W J Z A H A 7 6 1 1.X     ",
"      X C c < Z 6 2 *.H.@.P P K P P L P P P P P P P P P *.=.K H 6 A K L J J A A H p 7 < c C X     ",
"          M c < > p G.t.P &.=.P P P L J P P P P L P P W 9.9.Q A 4 6 H A A H A A Z 6 > > C         ",
"          X M c < J H.-.P Q *.*.L J p A L P W P K P P P &.*.Q H 4 4 6 p H H A p 6 4 - w ,.X       ",
"            O 2.2 ^ H.*.P K J P P J Z A A L E L H H K K K R J p 6 > 6 6 4 7 6 > > 6 > w Z.X       ",
"            O C.e -.H.W L P J p P J P P i J K P W p A K R W J H A 6 2 < < 6 > ; 4 7 i 1 2.O       ",
"            O 1.i t.G.T J Q H i J H *.^ i p K L W p A W L L L K L J Z 6 6 2 6 i p D Z < <.X       ",
"            O 1.e -.9.K H A p J J D *.Q 6 p J J H p A H H D A p p A Z 6 7 p p H J D p < M X       ",
"            O 2.2 A H p 6 p p H D A A p p A D D 7 5 5 6 u 6 7 7 5 5 u 5 4 p H H D J D 2 M X       ",
"            O 1.> p j d d d u 5 y p D D p 6 5 p p h j j d d g g ) ) [ ] 4 y H H J D s > M         ",
"            O 3.> l [ [ ' [ [ ..k 5 6 p 5 h _ _ j j h p 7 5 u u u 5 j o.5 6 J J p H s 2 M X       ",
"            # D.Y y u s u u u l X.l p h _ [ ..h 6 7 p H J P O.P p p 4 ..u 6 D A p s D 2 B         ",
"            & Y.K.Q 8.=.@.K H i 7 _ [ { X.p 6 Z K *.;.q.r.P.r.e.O.D 6 l p 6 Z p i D A > ~ X       ",
"            O D.J.8.x.x.n.l.0.*.J 4 d l 5 e p ..8.w.z.n.c.k.0.0.O.J 6 l 4 6 A 6 i J Z 2 1.O       ",
"              w J.e.x.n.v.v.w.e.0.H 4 4 y L +.6.z.v.s.a.z.a.%.=.Q A p K > p H i i J a 2 C.O       ",
"              # J.8.x.N.(.M.a.e.0...L L H W r.z.m.j.T.^.].`.d.+.W p p k 4 p A y i D i 1 v         ",
"                Y 8.w.N.oXoX).v.0.*./ ( P E w.(.'.[.|. X#X|.s.+.L 6 k p 6 h H 6 Z H 2 c           ",
"                  T ..l._.#X#X(.6.8.^ E ^ *.v.oX#X@X@X X|.Q.%.@.A Z H 5 6 H H 6 A A < M O         ",
"                v 0 y k ..i.R.z.=.Q 6 p P -.l.!.[.|.{.`.h.#.K p 7 H p 6 p A J Z A Z > 2.O         ",
"              # 1.y ] g d 8 8 O.*.D 6 < D -.e.q.#.#.X.l p p 5 p k p 6 7 H H J J A 2 0 >.X         ",
"              O 2.2 g ' 5.$.6 G Q 6 6 6 Z ^ ^ H 5 u 7 h j K j j 5 2 Z H J J J J A < N =           ",
"              @ V.2 p d | g.6 G ^ Z 2 4 Z W J 7 | #._ K ..l p 6 4 p H H A J J Z 4 m 9             ",
"              & S.e T H g u.5 L ( G G L L ^ A ) f.{ u y p 6 i 6 H G H A A G Z < b =               ",
"                w r D T ) p.7 L ( ( ( ( ( ( Z K i.g > A p J K L G H H H D 6 < F w                 ",
"                O U e A ) d.6 L ( / / / ( ( A _ d.g y L K K E J H H H A e , ! w                   ",
"                + 2.1 4 ) p.4 D ( / / / &./ A _ f.) i L H D J J H A 6 6 b B.c X                   ",
"                  x v > ) u.> p / / ^ W / ^ Z ) f.) 6 J H A H A 6 2 < I w 9                       ",
"                  @ <.; ) 7.> q L / G A ^ / Z l d.g 6 L J p i 2 < - < 1.n X                       ",
"                    w b d { > 2 c Z 2 < Z D 6 ) f.l 6 p 6 > > > p z u r m w n 1.O                 ",
"                    O :.q u > : 6 Z 4 2 e 2 < j  .j > > < < i h 7.R.j.5.[ l Y B w C O             ",
"                      9 U y k K 6 J K 7 < < > 4 5 > - - < < #.u._ [  .` X.$.5.k q <.O             ",
"                      # B > K o.k E p H 2 2 Z i > < 6 A 6 5 g.u.z K K 7 4 h j j 7 I X             ",
"                      O m A A i L 9.Z 6 > > y 6 p H K J 6 _ g.[ W ^ W H 4 6 ; K ..S X             ",
"                    @ >.e A Z > p A 3 $ % % 4 6 i A p p 3 #.4.k ^ E E J 7 6 > K ..b               ",
"                    * S.w 2 2 A L.b.[ ' ) f f f f l l d t f.4.Q *.P P J 7 p > z l m O             ",
"                      w M 2 Z A e.I.j.).~.f.E.^.~.h.W.u.[ g.#.*.&.K L J 7 6 > d d M               ",
"                      & C.M c < i u ) { } {  .i. .X.X.g z [ j *.&.K L H 7 7 4 _ k I               ",
"                . .     @ 9 V.M : 6 j X.` ` [ j 5 4 y 2 4 _ #.l H L J h 7 6 $ +.z <.O             ",
"              .     .       & O + 6 h d./.W.%.i < > 6 i < l s.4.d A 6 2 > 3 t h i 3.O             ",
"            .         .         O 6 6 j $.[ 5 0 > > 6 6 6 4 $X(.s.z > 5 p o.o.y w B X             ",
"        . .           .         O 2 y $ > $ 0 % # i p p 6 2 : l 7._ o.%.l l h b V.&               ",
"      .                 .       + j [ ` f u > + + 5 u d 8 5 5 > y 4 h j a e O X @                 ",
"    o                     .   X p %.E.T.s.o.k # # R v.M.s.7...p b r b #     n O                   ",
"      .                   .   O r 5 d f d 4 e & # y g ] g p y a #   . X o o # O .                 ",
"        .                   o o + o o o X .       X   . X o o o o .             .                 ",
"          .                                   . . . . .                         .                 ",
"            .                                                                 .                   ",
"              o                                                     . . o . o .                   ",
"                . . o o o o o o o o o o . . o . . .                                               ",
"                                                                                                  "
};
