/* XPM */
static char *enemy_r[] = {
/* columns rows colors chars-per-pixel */
"49 64 193 2 ",
"   c #000100",
".  c #090604",
"X  c #040807",
"o  c #0C0905",
"O  c #060B09",
"+  c #0B0D0B",
"@  c #07100D",
"#  c #0B110D",
"$  c #19160F",
"%  c #17150D",
"&  c #0A1511",
"*  c #0D1B16",
"=  c #0E1E19",
"-  c #171614",
";  c #1A1614",
":  c #171B17",
">  c #1C1A15",
",  c #171718",
"<  c #1B1718",
"1  c #141E19",
"2  c #1C1B19",
"3  c #22170F",
"4  c #231C15",
"5  c #291E15",
"6  c #231E1A",
"7  c #291E19",
"8  c #311F15",
"9  c #0F221B",
"0  c #172016",
"q  c #1D2116",
"w  c #14231D",
"e  c #1B231C",
"r  c #192A1F",
"t  c #2E200E",
"y  c #252317",
"u  c #2C2115",
"i  c #25211C",
"p  c #2B231D",
"a  c #212A1C",
"s  c #2D281E",
"d  c #322416",
"f  c #3A2614",
"g  c #3C2A15",
"h  c #33261B",
"j  c #38261A",
"k  c #35291B",
"l  c #3C2B1C",
"z  c #352917",
"x  c #142721",
"c  c #1A2620",
"v  c #162B23",
"b  c #1C2C24",
"n  c #153027",
"m  c #1C3026",
"M  c #1C332B",
"N  c #173B2F",
"B  c #1C3A2E",
"V  c #133229",
"C  c #1E3C31",
"Z  c #252321",
"A  c #2C2521",
"S  c #212F26",
"D  c #2E2923",
"F  c #212F2A",
"G  c #2E2B29",
"H  c #312722",
"J  c #332A24",
"K  c #3A2E24",
"L  c #352E29",
"P  c #392F29",
"I  c #22362D",
"U  c #223A2D",
"Y  c #283526",
"T  c #353326",
"R  c #3A3125",
"E  c #36312A",
"W  c #3A312B",
"Q  c #3E382D",
"!  c #223730",
"~  c #213C32",
"^  c #3D3631",
"/  c #3E3936",
"(  c #3F3B38",
")  c #422B16",
"_  c #422D1B",
"`  c #492E1A",
"'  c #493716",
"]  c #42321C",
"[  c #4B331B",
"{  c #52341C",
"}  c #58371D",
"|  c #543C1D",
" . c #5B3A1E",
".. c #443323",
"X. c #4C3522",
"o. c #4E3924",
"O. c #41362D",
"+. c #48372C",
"@. c #453B2D",
"#. c #553B24",
"$. c #5B3E23",
"%. c #553D2B",
"&. c #403630",
"*. c #433A33",
"=. c #4B3D33",
"-. c #453E3A",
";. c #503F32",
":. c #1D4135",
">. c #1F4538",
",. c #1F4C3C",
"<. c #214236",
"1. c #234539",
"2. c #264A3D",
"3. c #294A3B",
"4. c #554020",
"5. c #5D4225",
"6. c #56412B",
"7. c #5B422A",
"8. c #4E4535",
"9. c #4C433B",
"0. c #544133",
"q. c #594434",
"w. c #5E4934",
"e. c #55463B",
"r. c #5A4538",
"t. c #52483F",
"y. c #5C483D",
"u. c #644324",
"i. c #6B4424",
"p. c #644428",
"a. c #66482B",
"s. c #6C4B2B",
"d. c #69452A",
"f. c #714A26",
"g. c #734E2D",
"h. c #7B4E2D",
"j. c #7E542C",
"k. c #644633",
"l. c #634934",
"z. c #6B4D34",
"x. c #634C3B",
"c. c #684C38",
"v. c #6C5136",
"b. c #67523F",
"n. c #6B513B",
"m. c #755333",
"M. c #7E5730",
"N. c #7C5935",
"B. c #274E40",
"V. c #265244",
"C. c #2A5344",
"Z. c #285648",
"A. c #225948",
"S. c #295949",
"D. c #345C48",
"F. c #514740",
"G. c #554B42",
"H. c #5A4E46",
"J. c #435C45",
"K. c #425542",
"L. c #5D5148",
"P. c #675041",
"I. c #705442",
"U. c #476049",
"Y. c #43745E",
"T. c #8A572E",
"R. c #84562E",
"E. c #855631",
"W. c #845C33",
"Q. c #895832",
"!. c #8E5F38",
"~. c #8B5530",
"^. c #9A5E32",
"/. c #925F34",
"(. c #8D6139",
"). c #966032",
"_. c #996339",
"`. c #A26335",
"'. c #A96937",
"]. c #AA6738",
"[. c #B56D36",
"{. c #B96E37",
"}. c #BD713C",
"|. c #C4733A",
" X c #D87A3D",
".X c #E07F3D",
"XX c #B87744",
"oX c #B27743",
"OX c #CC7D45",
"+X c #C37A40",
"@X c #EA823B",
"#X c #E28342",
"$X c None",
/* pixels */
"                                                                                                  ",
"                                                                                                  ",
"                X X                                                                 X X           ",
"              & V.N                                                                 N A.O         ",
"            & :.v V               O O X X X X X X   X X X X                         Z.M X         ",
"          & 1.1 2 M         X X w S.>.C b r 0 w w v m ~ Z.w X O                     B.x n O       ",
"        & 2.w < 2 v     O = Z.~ e q : 2 4 4 6 < > > 4 < w c I C.w X               X M 2 2 1.O     ",
"      X Z.e 1 6 i w O = V.b 2 < 4 i p p D D J J L L L H i y 2 1 M Z.w           X B.b G L v B     ",
"      X C 2 2 Z i c C.C 1 - 7 p D H J J J L L L P P P P L P E L i w C * X X X X B.m i *.^ 2 B.X   ",
"      @ c < Z A A 2 2 - 6 A D D D H H J J T L L P P P P P P P W *.T e b B.1 x :.b i O.O.^ e <.X   ",
"    X 2., 2 7 A H 6 > 6 D D H J K H H H L E R P P L P P P W &.O.^ 9.*.i c ~ m q G *.^ L D > 1.X   ",
"      B 1 Z A A A D 6 6 6 p s H J H H J R T P P E W P P P ^ *.O.P &.G.0.h - < G P P H A 6 2 C X   ",
"    X M 1 7 A A D J L D i 6 6 y H H J L P W P P P P W P W P W P P P O.y.=.6 6 A D A A Z < c       ",
"      M < 7 A A A H L *.*.*.L 4 6 H L P W *.&.P W W P W E E P P P P P =.L.W > y A A A 6 2 :.X     ",
"    X >., 6 7 A A A A H E O.*.A 6 A J P P &.^ P P W P W P R P P P P P R t.G.D > Z Z 6 < M N       ",
"    X C c 2 7 p A A H H J J T D 6 H P =.*.P P P P P W P P P P P P P K E Q H.*.2 2 Z < c C X       ",
"      X C 1 > 6 A A H H H p A 7 6 A O.t.9.P L P P P P P P L J L P P *.O.P F.G.i < , c M X         ",
"      X ,.w - 4 6 i A s H A 7 < 4 A W *.O.P P P J P W P L A A J P *.&.^ P =.L.L : e I X           ",
"      X Z.1 - 6 > 4 6 7 6 6 6 < 6 s J R P P J H k L E L A H s J P P K K P &.L.W 2 2.O             ",
"      X B.2 7 7 > < < 6 > ; 4 6 p D J P K P H h E P P L i E P H P A J W L W G.-.e C.O             ",
"      X C < A A A i > 6 6 < A J P J P E P E A s E P J h i / *.H J i H ^ L R y.t.e 1.O             ",
"      X B 2 p D J H s i i i 7 A A i s A s A s p H L J i 6 W *.H H J s A H J 9.9.e 1.+             ",
"      X M 2 D J J H H p 4 5 u 5 5 7 7 6 5 7 7 5 i D H A i s A A J H 7 7 i 6 D A 2 2.X             ",
"      X M < s D H H H y 4 _ [ ) ) g f j d j j 8 u u i i A p H A 6 5 8 d d j h h - 1.O             ",
"      X M < D A H J J 6 u o.h 5 u u u 5 5 p h j l _ K d 4 i 7 7 h _ [ [ ' [ X.z 4 3.+             ",
"      X B 2 D s i s J 6 u _ 4 i A W O.W L A p 7 4 h ..{ _ h u _ X._ d u u u y y U D.#             ",
"      X ~ > D D i i i 6 7 _ 6 J &.r.y.x.r.q.;.O.T i 6 h [ { [ _ p i H K +.=.=.Q K.Y.#             ",
"      X 1.< a J i 6 A 6 4 K 6 H O.;.;.k.c.n.z.x.;...A 2 4 l d 4 L *.0.l.n.P.c.8.J.D.O             ",
"      X C.2 Z D p y J A > K p A O.=.%.k.z.d.s.v.z.7.@.P y 4 4 k 8.e.w.v.v.v.x.8.U.w X             ",
"      X v 1 i D a i H 7 4 h p A W +.d.`.].^.T.R.m.z.r.W D J L +.0.q.l.M.(.m.b.8.J.@               ",
"          c < D p 6 H h 4 i J 7 P @.s.}.#X X|.{.'.(.r.T L ( / *.%.m._.XXXXN.w.8.S X               ",
"        O M < D A 6 H H 6 4 l i A O.%.T.|..X@X@X#XoXv.*.^ ^ ^ *.0._.OX#X_.l.] Y .                 ",
"        O 2.< p A A H D p 6 p H 7 p P #.h.`.{.|.[.!.x.9.L i i Q 6.z.R.i...h 4 q x X               ",
"        X >.1 2 A G J J H i 6 7 h 5 7 s h l X.#.$.0.e.*.A 6 < D *.W d 5 8 g [ 2 2.O               ",
"          = C 1 A D J J J H Z 6 5 h j l k h u i 5 D / ^ Z 2 2 i ^ L 6 7.5.' l q 2.+               ",
"            9 m 4 A H H H H H A 4 4 h l K K l #.#.u D W A 6 2 Z ^ G y g.4.h y > C.@               ",
"              9 c < p G D A H H A i 7 7 6 7 5 { f.g A W E L G E ( J 5 u.) s L q S.@               ",
"                1 M < 6 G H H D J J L J H s 4 g i.l A ( / / / ( ( G 7 u.) T D b w X               ",
"                  x ! 2 6 A D H H J L L P L 6 _ s.l A ( / / / / ( L 7 p._ A q I X                 ",
"                    v B.b < y s D J L H h L 6 ) i._ A / / / / / ( G 6 p.) 4 1 B.#                 ",
"                    X = 1 I < > 7 A A A A J 6 ) f._ i &.*.^ ^ ( ( Z > 5.) ; e w X                 ",
"                      X n 1.1 > 2 2 i A J L 6 l f.l i *.^ Z G / L 2 4 %.) ; 1.@                   ",
"                O 1.n w b a u z s < : > 7 A 4 _ f.l 2 D Z 1 2 Z q 2 4 #.d r w X                   ",
"            X C w U Y R ..$.M.j.%.j y , > > > j  .j < 2 2 < 4 A 2 - > 5 q :.O                     ",
"            X <.i k 5.$.[ ` $.` _ u.#.- - - - 6 5 4 < 2 < 5 K J 7 _ l > U w X                     ",
"            X I u k k h 7 7 K L j 5.j.5 6 i 7 < - i i > 2 H A L H o.P e :.@                       ",
"            X S _ J ; 6 6 H W ^ P { s.l 6 L L H i 7 y > > 6 i 9.L 6 A Z b X X                     ",
"            X b ..K > 6 7 H E W W K $.} 5 7 i s i 6 4 $ $ $ 4 H i 2 Z D e <.@                     ",
"            X m l z 3 i u J P W &.Q | f.t z l g f f f f g [ ` n.L.Z 2 < w S.&                     ",
"            X b u d > 7 p H P P @.*.#.g.' 5.W.h.T.^.E.g.Q.^.j.n.t.A A e M = X                     ",
"            X I l R 4 6 7 H P K O.*.j [ z z o.X. .i. .{ } { ) d i 2 1 M C.&                       ",
"            X <.k ..3 4 7 p J L J K #._ 4 2 y 4 5 j ` ` ` { K 6 1 M V.w + X   o .                 ",
"            O 2.y h 5 > > > 7 A u $.s.l < 7 y > - i #.W.).p.h < + X # X     .     .               ",
"            O B w i o.X.h 5 4 h s.W.$X4 2 7 6 4 2 2 y { #.k y i X         .         o             ",
"              & 2.S s l z %.X._ 7.l : > Z A i i # % 1 > 4 > 4 2 X         .           . .         ",
"                @ O + e a j j 6 y 4 4 5 8 d u 6 + + > t f ) [ h -       .                 .       ",
"                  O V . X # b r r y ..%.s.M.m.R + # s o.s.R.Q.%.i X   .                     o     ",
"                . . # . .   X . # a 6 h z ] z y + & i 4 d f d 7 e O   .                   .       ",
"                .             . o + o o . . X     X X   . o o o + o . .                 .         ",
"                .                         . . . .         X                           o           ",
"                  .                                                                 .             ",
"                  . o . . .   . .                                                 .               ",
"                                              . . o . . . . o o o o o . o o . . .                 ",
"                                                                                                  "
};
