/* XPM */
static char *player[] = {
/* columns rows colors chars-per-pixel */
"45 64 66 1 ",
"  c black",
". c #330000",
"X c #003300",
"o c #333300",
"O c #000033",
"+ c #330033",
"@ c #003333",
"# c gray20",
"$ c #660000",
"% c #663300",
"& c #660033",
"* c #663333",
"= c #336600",
"- c #336633",
"; c #666600",
": c #666633",
"> c #003366",
", c #333366",
"< c #663366",
"1 c #336666",
"2 c gray40",
"3 c #990000",
"4 c #993300",
"5 c #990033",
"6 c #993333",
"7 c #CC3300",
"8 c #CC3333",
"9 c #996600",
"0 c #996633",
"q c #CC6600",
"w c #CC6633",
"e c #FF6633",
"r c #996666",
"t c #CC6666",
"y c #669933",
"u c #669966",
"i c #999933",
"p c #CC9933",
"a c #CCCC33",
"s c #FFCC33",
"d c #999966",
"f c #CC9966",
"g c #FF9966",
"h c #CCCC66",
"j c #FFCC66",
"k c #006699",
"l c #666699",
"z c #996699",
"x c #009999",
"c c #339999",
"v c #669999",
"b c #6699CC",
"n c gray60",
"m c #CC9999",
"M c #FF9999",
"N c #99CC99",
"B c #CCCC99",
"V c #FFCC99",
"C c #9999CC",
"Z c #CC99CC",
"A c gray80",
"S c #FFCCCC",
"D c #CCFFCC",
"F c #FFCCFF",
"G c #CCFFFF",
"H c white",
/* pixels */
"*-<#:<-,:**2:*2--<:,:::21:*2*2:*2-1*:2*-*-*:<",
"-*#:#:*:*1-<,::<2*2:2<*2*21:2:###<:<2#<:2#2#-",
":,:<#+-*:2::2*2::2:2:22::22*22#oo#*:-<:22:*1*",
"#:*-#o##,:<-:2-<<:1*#########*#o;:#:2:2##2:*2",
":<<:#o:;#*:222:22####:2drd22:##oo0;#*2::2*2:2",
"*--:o*%0;##2#2:#o#:rdddndnfddmdr#o:o#2:<-2:,#",
"1<-#o%*;0-#-2:##2rrdmddfffnnddmNf2#:##222*2-2",
"*::<##;#:y:#*##r:2ddnffnnddfmddfdmn:##2::2*<:",
"<-:*o-:=#yy:+#2::rdfndddfnnddnnfddnd##:22*2::",
":*21#-:y::y:o2:2:rnddfmdddffffddmddfrX#2:22<*",
"1*<:##:---:u-*:r*2fdnnfdnfdNndfnndmdm:#2<::22",
":2:2:#-::=:y:#:222dnfddmndfdnfddffnddr#2222::",
"*<:2<#o#*=-:;#2:2:rfdnnffmddddmmdfmddn#:2::2<",
"1:*2:2#%%%#;0%*22::dffdddddmmddddndddf<:2222:",
"2:1::2<o;*;*0o#:*2:rndmddddmmdddffnmmd:#2:2:2",
":<:22:21o%*%;#%###:2ddddmmddddmmnddddm2X#2222",
",22:2*22#.oo.40*#%*#:2dfnfddnfddfdddfd:.*2222",
"2:2:22:22o409e4:#4q6#*2ddfnfndfnndmmd2**:22:2",
"*22<22222#o40q4#:%wqw%#*2dddfnfddfdd2%q%:2r22",
"2::22:22r###4w6#2o4wqqw4%*2ddddmnd2*9ewo2222:",
":22::2r22#::#.o*2##4w8wqq64*#::**%6qwq%#2r22:",
"<:2222:22#.#:2:2:*0:o%*4wqwqw7wqqwqw4*+222222",
"2:22:22rr2###*:2#:fg**#o%*644qqww4%*:0#2r2:r2",
"22:2222222od*o2:.0j0#o@ X#0*:*6q. #X:*:d222u2",
"::22:2u222oft*:*%rfo2vx 22:ffd%*>#nlo@22u2r22",
"2<:22r2r2:.ffo#:$0fdBbk 1nBfjfr:x@2B*#2r2r22r",
":22222r2r2#:r:#:%:fjjAcxxvBghMgBcxcB#o2d222ri",
"<2022:22221.:0#*$*dgfVvklBghgghfd#2f##22d22:d",
"2:22:2u22du<#o##.*rfhgr:rffjfjfjffffo#222r22d",
"222:2rr222r22##:oo0pgdrBNnrdrr0d:fj0*#-r2ru2i",
"::<22:222ur222#<#orrf0lHHHHAAAAA#th*#:#r2u2ru",
"222222r2r22dd2#:# :00:dCnmCBANAZ#fr.#:#2r2222",
":222:22r2rr222#:2 #:00:CAFGSFDFA:0##o2*#222u2",
"22:2222222u22. Oo.  ##*:2nBAAnn-##22###o:rr22",
":22:r2:22d22.o.%.%%.   .o###o.o.:2nr22-<22222",
":222:22r222.o.o$444%          ..#222rd22ur22r",
"<22:2:222r#X.%$%4%4% ###  #  o..#:##-22r222:2",
"2:<222222:#*o.%4434$ ##-2##2# 2vnnnn2#22r22r2",
"2*:222222##0:.%4444..#-,<--##2nd:#*#22#22:222",
"22:2*:22:#00fro$%4%O#1**-##+2n**04w942:#2r22:",
":22#.#-2#X*:fgf#.. ##,:#-#+-n**994w9q*:#222:2",
"2** ..$#+#.oo#:o#  #:##2#.#n2%qq*qqww9###22r:",
"-2#..$3.#@.**#$+  ##,*-##o2l%wq09wwqw%%##:2:2",
"<::#..5..o##.#o Oo##:##*.#n:0qw406%0946#*2222",
"-<2,-+3..rffff0## O.##.@.,n:qwq%%<2:%09##2:22",
"2:::2:#.ofjjjVfo+oo#o$o##124pq*0*nAn%w0o#222#",
"*2:2<22#ofjgg0*##.o.#..,#22%q994:nZ26q:O*22:2",
":#<:-:2:#rfVfo$o :o@#oOoo220q669o22:qw%#:2:<:",
"2<:22:<2#o:f:.$.oa*#,::1#2r*q*9w0;o0q0o#:22:<",
"*-2##::22###. ..:sa0##,:+-d*96wqqw4ww%+#2:<22",
":<:#*2:22:22#$#oassa:*@.O#n#%9q0w46q;##2#22#-",
"#-*21:<#*2*#$$#:0psp2n2#o 2d*q0qw%94###:2::2*",
":<:#2*:2<::$3$#; o#2AAmn2+#u2*40;%*###22*<:2:",
"*-<-2-*2-2#536#..  #rAABnn2*2z2**2###::<2-:#:",
"-#::*2#-2*#o&3o .**o.#vAAmnd22222##:-2<-2#<-,",
"*2#<#::<<-*#44#+o*%** #*dAAABn:@o#,:<::2*:2*:",
"#::#,:<::-<#43#Xo.#+% <-##rASAmn2*#::*1:<-*:*",
"##<::*-#:<:#.## .o%ooO*:#  #dAABmnz1##1*:-2#1",
"##<##*<:#-<:### **%**o##o *%o*zADAAmd<##**-**",
"-*-*-#-##*#####..o**%*.@  .*%#o#2ASAnmd2#####",
"*:#*##**-#####o#. o . X.#    o   o2ZSAAnnn:#o",
"##*-:#-#*#*#*###############+#######2nAAZ2###",
"-###-*,**-*-*-#::#-##:2#1**:*-#*:#:#*##2###-:",
"**#:*#:-#*#2#*:#,:*<:##:*#:#:#2-<:#:#-*#:#**#"
};
