/* XPM */
static char * wall_xpm[] = {
"64 64 107 2",
"  	c #AC9674",
". 	c #BC9E7C",
"+ 	c #BCA684",
"@ 	c #AC926C",
"# 	c #AC9274",
"$ 	c #AC966C",
"% 	c #C4AA84",
"& 	c #B4A27C",
"* 	c #BCA27C",
"= 	c #BCAA84",
"- 	c #B49E7C",
"; 	c #AC9A74",
"> 	c #B4A67C",
", 	c #C4B28C",
"' 	c #CCBA94",
") 	c #BCAE8C",
"! 	c #C4B294",
"~ 	c #BCAA8C",
"{ 	c #B4A284",
"] 	c #C4AE8C",
"^ 	c #B49E74",
"/ 	c #C4B68C",
"( 	c #C4AE84",
"_ 	c #A48E64",
": 	c #BCAA7C",
"< 	c #B4966C",
"[ 	c #BC9A74",
"} 	c #BCA67C",
"| 	c #CCAE84",
"1 	c #CCB28C",
"2 	c #C4AA7C",
"3 	c #B49A74",
"4 	c #B49A7C",
"5 	c #AC8E6C",
"6 	c #BCA284",
"7 	c #AC9E74",
"8 	c #CCB694",
"9 	c #D4BA94",
"0 	c #C4AA8C",
"a 	c #CCAE8C",
"b 	c #CCB68C",
"c 	c #CCAA84",
"d 	c #C4A27C",
"e 	c #C4A67C",
"f 	c #B49674",
"g 	c #B49274",
"h 	c #C4A284",
"i 	c #C4A684",
"j 	c #A48E6C",
"k 	c #9C8664",
"l 	c #CCAE94",
"m 	c #CCB294",
"n 	c #BC9A7C",
"o 	c #B4967C",
"p 	c #AC967C",
"q 	c #CCAA8C",
"r 	c #D4B28C",
"s 	c #D4B694",
"t 	c #C4A68C",
"u 	c #BC9E74",
"v 	c #D4B68C",
"w 	c #B49A6C",
"x 	c #A4926C",
"y 	c #CCB69C",
"z 	c #BC9E84",
"A 	c #B49E84",
"B 	c #D4BE9C",
"C 	c #D4C29C",
"D 	c #CCBE94",
"E 	c #C4AE94",
"F 	c #CCB284",
"G 	c #A48A6C",
"H 	c #AC9A7C",
"I 	c #C4B694",
"J 	c #BCB28C",
"K 	c #CCC29C",
"L 	c #BCAE84",
"M 	c #AC8E74",
"N 	c #AC8A6C",
"O 	c #C4B284",
"P 	c #BCA274",
"Q 	c #B4AA84",
"R 	c #DCC69C",
"S 	c #C49E84",
"T 	c #D4BA8C",
"U 	c #9C825C",
"V 	c #BCA68C",
"W 	c #D4BA9C",
"X 	c #A48A64",
"Y 	c #D4BE94",
"Z 	c #AC9E7C",
"` 	c #B4A684",
" .	c #A49274",
"..	c #C4BA94",
"+.	c #CCBE9C",
"@.	c #CCBA9C",
"#.	c #A49674",
"$.	c #9C8E64",
"%.	c #9C8A64",
"&.	c #A4966C",
"*.	c #9C8A6C",
"=.	c #A48664",
"-.	c #BCA674",
";.	c #B4A274",
">.	c #94865C",
",.	c #AC8E64",
"'.	c #AC9A6C",
"  . + .   @ # $ + % + & * = - @ ; & = = + > , ' + + ) ! ~ - { ] & * & ; @   ^ + / ( $ _ & : & ( - ; & % * # @ . < [ } | 1 1 2 } ",
". - 3 4 * * 4 5   3   $ 4 % % 6 = & 7 + 8 9 ] & & - + ] 0 * + ! * % ] a ] ] ] 1 b ' b ( ( + } = + & * 6 } 4 3 6 c % d * e ( 1 ' ",
"* 6 * f f * 0 1 ] 1 ] % % , 1 ] , 1 ! / , , ) % + 6 + % + - 3 * ] + . ; 3 * % 1 - - + ~ * - 6 - * & - * & . 4 f g 3 . h * . 6 } ",
"- * i - 3 6 1 9 + a 1 ] + 6 . 3 3 + 1 } j k _ - 6 * * * + * - & . * % a 1 a + - l 4 - i + m 8 i & % ] ( ] ] i . n n o f # 4 i m ",
". - 3 * 0 1 0 . j f - . . * * - , 1 , ] % } 6 } & - - % ] 1 m 8 6 3 j j   * 0 1 ] 4 o 4 4 6 + p ; + ] i * i + . n . n 3 f 4 6 ] ",
"i i - f 3 . * - d 6 i 6 d + q m % % % ] b m % * a % % % % % + e + i q r s s 1 0 f # ; 4 @ j # 5 - } + ^   3 * * 5 3 h 0 i . 3 $ ",
"] ] i f j   + a a i i . . . * h % , 8 8 1 , 1 8 1 1 a % * . 3 3 m c 6 3 o . h i % a a a 1 a ( 1 ] , 1 ] % i % t | c % 2 % ( 1 b ",
"% i 6 * % a % * 4 [ 4 . . d 6 i i 6 3   f 4 - * * e % e i % | 1 q % i h * d * i | ( * u 1 1 } i ( ] , m , i - f [ u % a v b ( 2 ",
"@ @ f 6 ] 1 0 * * u 3 w @ @ @ @ $ @ # 3 + ( a 0 ^   5 j j g 3 [ $ 4 * .   @ # 3 6 * . - 3 f 3 . # f [ . . i % a = } 2 , 1 % ( b ",
"i + * + % 0 % * ] % i + } + % % % % + % ] a , % + % ] 1 1 | h . + i i } } i a b + * * . 3 5 k k 5 f - . . 4 g @ ( * 3 . = ( % % ",
"6 . 3 3 . * + i j j 5 @ o * ] a ! , ] % % + } 6 x   3 . 0 a a a u * * % % % + * . - 6 ] 1 1 % i . h % q ( i * n * .   @ < . * * ",
"i * 6 . + i ] a s m m l m m y s s 8 s 1 ] % % % ' 1 = * - - . . - + % a 1 a i } * f   3 6 * 4 3 a % + i i 0 % i . i c 3 5 f 6 q ",
"m b m ] % + * * 4 z - z * z . A + % ] ( % + 0 ] ( 0 ] 1 1 1 a % } * + * * % 1 9 B s 1 1 m 0 % + % * 3     f   @ 4 % q n 5 @ [ 3 ",
"1 m 1 1 i . o 3 # f 4 - * 6 6 * 3 ^ & 6 * + % ] C B D 8 , 6 ; @ . . * - u - * % i i % ] a + i % 8 1 ] a 8 8 1 ] i i + . . n f # ",
"% 0 1 ] i + % ] 1 b 1 1 ] i * . ] ] a 1 m 8 8 9 ' ' , , 1 8 s 8 ( a 1 s 1 ( i * 0 ] a % - @ 3 6 ; # $ - } % * 4 ] 0 % E m , 0 0 ",
"  f 3 3 3 ^ + a + e % % | ( F 1 8 9 8 ' 9 9 9 9 ' 8 , b 8 b 8 8 s 1 ] 1 1 8 1 | ] a ] 6 @ 5 4 a , % + i , b ] } G j H + 6 - 6 m ",
"& = I I , J b K b : * } } * * d 4 * 0 ] + -   # } } + 3 @ @ 3 * : L 2 * . g M N   * % F b ' F % ( F O } P % ( 2 ( F b F L = = Q ",
", , b ' ' B B B R 9 1 + . [ i 1 ] ] % + + 6 % ] 4 * % % % = % L ( = + & 4 . z S a ] 0 * } % ( : ^ & e } , T b = : % 1 b 8 ' ' C ",
"- * 6 } 6 } * &         # # g 4 + * H 5 k U k k + * H     3 * + = ( ( 1 a q h . * + = } + } ^ 3 3 - * - 3 3 j U [ ^ u 3   $ f - ",
"0 a 1 a d - n * t + h 0 a 0 . # 3 . + + % 0 + -   f - + + - j k 3 - + a a } n f & 6 i a ] % P 3 + m 8 ] V 0 m m 1 a % . f f 3 - ",
". . . 3 g 5 G N 4 4 4 - z z z - # ; 6 + ] 1 % 6 ] * f - + 0 a m & . * % 0 i % q 0 6   @   3 - * o - 4 o f - + 0 4 f # 5 5 # . i ",
"a + n * 0 ] d 3 G n q 0 * - + ] 1 ] % - * 0 ~ * # # 4 a W m 0 + 6 * 6 % ] * * } 0 4 j X # ^ i , m 0 z - 6 6 p G 0 + 6 . 4 . i 1 ",
"i + * i ] a 0 + f % 1 i 3 @ x @ & - # j   + ] + 6   # 4 - - . 6 # M   6 * f @ @ + A 4 6 ] m ' 9 ] + * + + + * 4 ] E ] + * - . . ",
"@ - % + ^ f & 2 S u $ @ 3 % ( ( + t * 4 . % *   t - A 0 0 6 4 - n   f * i i ( Y A # M H * + * + ] 1 1 ] * - * % Z { ` + A ^ 4 ^ ",
"] *   - 0 1 ] + * - 3 ; - * ! B ] ] ] ] + { 6 + % + } = ) = ) / , = ] B ' = > 1 J O >   ; + % & x 7 ) b I ( = = Z    .- = 8 I ] ",
"m ] + * 6 - 3 # & 4   5 G j 4 % % - @ G k k j   + ( , 8 Y D ' ..*   x * = + + % , D +., ( ( ] ] = ] , 8 , = H x - } ] ' B +.1 = ",
"j   - 6 & 6 % ] i + * - 3 4 % @.0 4 j j ; 6 % , - * - - ` , , = + & + , b ] % = { + % + * 4 3 3 % 1 9 1 6 @ _ G #.- = 0 = 6 & - ",
"- i 0 ] i + 0 1 W 8 , 0 + & + ] 8 ] & 6 % 0 = t ( ] ( } ] ' 8 = @ * % +   @ ; 4 ( .   3 6 * 3 f - 6 i + - f # @ & = ] , ] = ] , ",
"j   3 & 6 % ] 8 ] 0 % ] 1 l ] 1 ] + % ] ] 0 + + * ~ ( = ] s %   - i % - @   } 1 a * - * % i + * . 3   * % 1 i * H 6 ) 8 I ] ~ + ",
"] i + 6 6 -   5 j k k # * + + 6 * & + 0 , 1 8 W ' 8 ] i ( 1 m % % ] 1 1 m r 1 ] 4 + 0 % + * 6 = - + ] 1 ] ] 1 8 - & & + = = } { ",
"+ % 0 8 9 B 8 ] 1 0 + 0 ] ] % + ] 0 + + + 6 + ( , % -     3 . . 5 # ^ i + - # X * 1 8 ] + = J , - = 1 , + } = , , ] ] ] ] ! 8 ' ",
"+ + ] 8 9 8 i - M X j   - 6 i ] ] 0 = 0 ] ] ] m ] ] 1 8 1 . f @ 5 5 f f @ 5 f i 1 b ] & & L / J ( ; $.  ( I > j G x 4 & & & - - ",
"j   * % 0 % ] ] : % ( 2 % O 1 1 * i i i . 3 g @ j $ ; - * = 0 ] + ; %.  = 6 &.x 8 , = & + / B Y 8 6 ; - ] m ] 0 ;   @ # - ] ] 6 ",
"i * & . & % ] 1 s ' 9 b 1 1 = * 3 # @ @ . 6 + * % , 8 9 8 , ] ( , ( + % , = + 1 + = = = , 8 / , - - 4 4     3 + ( + ^   6 0 ] 0 ",
"] * @ j @ 3 - & $   $   - % % % a % . - - . ^ 4 = ] 1 ( = * } + 1 1 ] ] 1 % = 8 ] , 1 ] = % ] = 0 + + % , ! 1 ! ( a 1 m 8 8 l 6 ",
"B , i + = 0 % + a 1 8 1 8 9 9 ' ] 8 8 ] * 3 - * * } + * - & % , + 6 ^ - = - @ @ & + } - 3 ; ; 3   x   6 ] ] + 4 @ ; * % 0 + 4   ",
"% % = % % + * - j ^ i * 4 $ j j % ] a % -   3 & 6 } + & & * ] b 8 1 % 0 1 + 3 ; & ( ' Y ' 9 8 , - 6 % ] 1 m ] ] % ] ] 0 % 0 ] m ",
"] ] a ] ] ( 0 % - 0 ] ~ * + a 8 1 + 3 ; - } * & + = % = + * & - + % + 3   @ 5 3 f - 6 + i = % + 4       + ] 1 ] * * + * 4 p - 0 ",
"* * * * * - - ^ 6 } . # k j 4 + } ; $ 3 ] ' 9 8 ( ] ] 1 , ] + * a 8 a * i 6 + 1 ] % * - ^ 6 % % + - @   ~ 9 8 = * % ] ] *   o 6 ",
"% = ] ] ] % + . 6 0 m ] 0 0 % 0 ] ] ] ) ] ] = = * & - } % ( % + . . 5 # * i . 4 * * * . 6 0 % i = m 8 ] % 0 0 + + i + - j k # t ",
"' = 3 ; # *.x { * ] - k =.& ] ] ` - 7 3 - 7 H   x ; + ) = 7 #.&._ x ; & } = , 8 = 6 - ^ ^ & % ] & & = 1 + @ j @ * , 9 1 ] ] ( % ",
"* } , m 1 ] V + 0 i + ] ] 6 4 ] a ] + + 6 6 * 6 ] , ] ( = ] 1 , ] , , ] ] = ] ] } = ] ] % = ( ] & = % + - ^ - 6 - ^ - - + % &   ",
"] ] ( + { 0 1 m ; # @ * + # j + + ] 8 % ;   6 8 b L &     ; & & , 8 Y B ' ( & ;     ^ - - - ;   ; ( ' , % ] % } = % ] , 9 Y 1 + ",
"1 8 s 8 b m ] ] i , m ] 8 9 9 9 B m ] 0 m 8 8 ] ] , ] , 1 ' B 9 8 b ] ] = % ] 1 ] % } + ( ] ( + & ] 8 ' 8 1 + .   + 1 b ] + = ( ",
"-   4 6 & # # 3 # 0 ] . + ] 0 - - - ^ 4 3 4 - . ^ + 1 ] ( ] % = % ] b ' 9 ' 1 , b , ] ( 0 ( m 8 / = = % % + * * + , ' 1 > - % ' ",
"m + 6 % 6 f 3 %   - 3   4 - - i * i 0 % 6 . } 0 * ] b a = i = 6 * + 1 8 8 ] 6 3 3 + 1 = & 3 } , 8 = + , ] } - * , ( } -     - % ",
"o o 6 0 % - @ @ 6 4 x # 3   - m W - G 5 0 8 6 =.j 3 - - * % 1 ] 1 + 3 # $ - } 0 + = ] ] % = ] 1 = = , 1 ] * - f 8 ] ] 1 , ( ] , ",
"f o f 5 # * a 1 ( 8 m ] m ] i 0 % 0 i . 3 f 4 . + 0 i . - + 6 3 3 4 * % a ] i * + $ k %.^ + - x L 1 , - $ # ; 3 k x * , ] * ^ - ",
"& & = I 8 , , , ( ^ } ( & * , ] -.L , ' 8 / O O i } } = i } ( 1 + % % ] % % + + } * * * % % % * + = = + - * ] 8 1 % + + * * + 0 ",
"( - x   } = ] = } ^ % : 3 3 = 6 : & ^ ] +.R ' ( & i ] 1 ( * * + % , 1 + $ x 3 % a % i * + i % % 3 - * % b ' 1 ( + * + % ] + i ] ",
"+ & = ] ] = ] ] e % 1 c 3 n i i } ( 8 , + - ;.> ( ( 1 ( 6 & % b ] % } * ^ . } + . ^ 3 3 3 ^ * * = + - & * & ; x * - . ^ f @ x @ ",
"j - % , = * & } e d i h 3 g 4 . % = = ] ] ] ( % * * 3 $ j _ < + v ] % % ] % * 3 ^ * i % % a ] a ] , 1 ] = + % a ] % + * - 6 % 8 ",
"8 ( + % 1 ' ' m a i * % h f g z ;.+ + + A & + : s b 1 1 ] } 6 } $ * ( ] ( + ( ] % % 1 1 m 1 a 1 ^ + = % + } & * , ] * 3 @   * 0 ",
"% 6 3   3 + i } * - g f 4 M =.5 & a W 0 M =.  % ( % + + % } * + @ 3 } % ] 1 9 Y a ] % } * * . ^ B 1 % ( 1 8 ] = 1 b m + & * % % ",
"& + i * & * & - % 9 1 0 m m 0 m b ] + 6 0 ] ] a b ] % ( % % ] 1 9 8 1 1 1 , % * b a % i i } * * ( - #.  & ] 1 ] X   - - . + ] 1 ",
"i - @ @ 3 6 f =.k % =   { m ! ] 0 0 t 4 M G # 3 % ( 1 8 % - w   } 1 B 9 1 % ( 1 + * * % ] a % * ~ ( % = * & ^ - + 1 1 % * + % 0 ",
"n 1 0 5 G . * 5 >.7 / b : & * } % ( : + ^ @   H O ] : * * i a s r 1 % - f   . } 6 * * i + + * 6 ^ i , }   _ 3 % 3 6 % + f @ 3 + ",
"1 i + % % . * 0 / , ( + % 1 1 ( ( ( = * * + ] 1 % % : i } i q l j $ - e % ( a 1 1 . # 3 % 1 a % a O a ] % } + + i i + i + 6 + a ",
"-   [ 0 * k 5 % ( - _ X $ * * - c % * 3 3 6 i * e * . 3   @ X X i i } i + % } + i * 6 + i 6 * 6 % + } i % ( ( % = 3 # . + e i ] ",
"3 * + = * 3   - i i i i c a a c c a c . . e i . < g < * ( 8 8 , , % i } % ( a % f * % ] . @   - } e + } * * % 1 6 f @ - i - * % ",
"8 , % % m ' % @ * * * e z S u . f u [ f 3 h a a v | i c 1 8 ( { % i } 0 a 1 0 e + 6 * . - . + a % ] ( % = i = + % } % 1 ] * 6 ] ",
"8 1 8 8 b ] + } 9 ] d * P S [ n @ 5 5 ,.@ u c v w g @   * + * 4 1 ( i * i } * - 0 % ] 0 + * % m ^ 3 3 } 1 1 } 3 * 0 8 m % - . % ",
", 1 ' 9 8 = % , ] * - . u 3 [ . % - 4 & * * : , ( ( 2 * 3 @ X =.i * 3 f ^ i ] 1 u 6 % a * 3 - i @ j x 3 % ] }   . i a i * . - . ",
"] & x   L W L j _   e ] + u - e 0 - - ( , * '.w : ( b 1 * n f n 3 - . } i % % i 6 @ U k f - . - * } * * & * * } 6 % % 6 * % i - "};
